# Blender 5.2.0 LTS
# www.blender.org
mtllib lamp.mtl
o Cube
v 1.000000 1.000000 -1.000000
v 1.000000 -1.000000 -1.000000
v 1.000000 1.000000 1.000000
v 1.000000 -1.000000 1.000000
v -1.000000 1.000000 -1.000000
v -1.000000 -1.000000 -1.000000
v -1.000000 1.000000 1.000000
v -1.000000 -1.000000 1.000000
v 1.000000 1.575997 1.000000
v -1.000000 1.575997 1.000000
v 1.000000 1.575997 -1.000000
v -1.000000 1.575997 -1.000000
vn -1.0000 -0.0000 -0.0000
vn -0.0000 -0.0000 1.0000
vn -0.0000 -1.0000 -0.0000
vn 1.0000 -0.0000 -0.0000
vn -0.0000 -0.0000 -1.0000
vn -0.0000 1.0000 -0.0000
vt 0.582623 0.079516
vt 0.582623 0.176035
vt 0.531524 0.176035
vt 0.531524 0.079516
vt 0.312059 0.562946
vt 0.312059 0.412314
vt 0.496583 0.412314
vt 0.496583 0.562946
vt 0.312059 0.713578
vt 0.496583 0.713578
vt 0.681107 0.562946
vt 0.681107 0.412314
vt 0.681107 0.713578
vt 0.312059 0.864210
vt 0.496583 0.864210
vt 0.531524 0.197752
vt 0.386684 0.197752
vt 0.386684 0.079516
vt 0.582623 0.272555
vt 0.531524 0.272555
vt 0.633722 0.079516
vt 0.633722 0.176035
vt 0.582623 0.079516
vt 0.633722 0.272555
s 0
usemtl Material
f 5/1/1 7/2/1 10/3/1 12/4/1
f 4/5/2 3/6/2 7/7/2 8/8/2
f 8/9/1 7/5/1 5/8/1 6/10/1
f 6/11/3 2/8/3 4/7/3 8/12/3
f 2/10/4 1/8/4 3/11/4 4/13/4
f 6/14/5 5/9/5 1/10/5 2/15/5
f 11/16/6 12/17/6 10/18/6 9/4/6
f 3/2/4 1/19/4 11/20/4 9/3/4
f 1/21/5 5/22/5 12/2/5 11/23/5
f 7/22/2 3/24/2 9/19/2 10/2/2
