# Blender 5.2.0 LTS
# www.blender.org
mtllib sofa.mtl
o Cube.001
v 2.000000 -0.022855 -1.000000
v 2.000000 -1.000000 -1.000000
v 2.000000 -0.022855 1.000000
v 2.000000 -1.000000 1.000000
v -2.000000 -0.022855 -1.000000
v -2.000000 -1.000000 -1.000000
v -2.000000 -0.022855 1.000000
v -2.000000 -1.000000 1.000000
v 1.400000 -1.000000 -1.000000
v -1.400000 -1.000000 -1.000000
v 1.400000 -0.022855 1.000000
v -1.400000 -0.022855 1.000000
v -1.400000 -1.000000 1.000000
v 1.400000 -1.000000 1.000000
v -1.400000 -0.022855 -1.000000
v 1.400000 -0.022855 -1.000000
v -2.000000 -1.000000 -0.478822
v 2.000000 -0.022855 -0.478822
v -2.000000 -0.022855 -0.478822
v 2.000000 -1.000000 -0.478822
v -1.400000 -1.000000 -0.478822
v 1.400000 -1.000000 -0.478822
v 1.400000 -0.022855 -0.478822
v -1.400000 -0.022855 -0.478822
v -1.400000 0.846421 1.000000
v -2.000000 0.846421 1.000000
v 2.000000 0.846421 -0.478822
v 2.000000 0.846421 1.000000
v -2.000000 0.846421 -0.478822
v -2.000000 0.846421 -1.000000
v 1.400000 0.846421 -1.000000
v 2.000000 0.846421 -1.000000
v 1.400000 0.846421 1.000000
v -1.400000 0.846421 -1.000000
v 1.400000 0.846421 -0.478822
v -1.400000 0.846421 -0.478822
vn -1.0000 -0.0000 -0.0000
vn -0.0000 -0.0000 1.0000
vn -0.0000 -1.0000 -0.0000
vn 1.0000 -0.0000 -0.0000
vn -0.0000 -0.0000 -1.0000
vn -0.0000 1.0000 -0.0000
vt 0.638552 1.079075
vt 0.638552 1.780450
vt 0.226272 1.780450
vt 0.226272 1.079075
vt 0.974280 -0.675761
vt 0.510840 -0.675761
vt 0.510840 -0.818045
vt 0.974280 -0.818045
vt 0.974280 0.377699
vt 0.510840 0.377699
vt 0.510840 0.130515
vt 0.974280 0.130515
vt -0.148625 -0.011769
vt -0.148625 0.130515
vt -0.850000 0.130515
vt -0.850000 -0.011769
vt 1.850000 -0.116669
vt 1.386560 -0.116669
vt 1.386560 -0.818045
vt 1.850000 -0.818045
vt 1.850000 0.272799
vt 1.386560 0.272799
vt 1.386560 0.130515
vt 1.850000 0.130515
vt 1.850000 1.079075
vt 1.386560 1.079075
vt 1.386560 0.936791
vt 1.850000 0.936791
vt -0.148625 -0.818045
vt -0.148625 -0.675761
vt -0.850000 -0.675761
vt -0.850000 -0.818045
vt 0.974280 0.130515
vt 0.510840 0.130515
vt 0.510840 -0.011769
vt 0.974280 -0.011769
vt 0.098560 0.377699
vt 0.098560 0.130515
vt -0.186008 1.780450
vt -0.850000 1.780450
vt -0.850000 1.079075
vt -0.186008 1.079075
vt 0.974280 0.936791
vt 0.974280 0.272799
vt 1.050832 1.079075
vt 1.050832 1.743066
vt 0.638552 1.743066
vt 0.098560 -0.675761
vt 0.098560 -0.011769
vt 0.098560 -0.818045
vt 1.850000 0.130515
vt 1.386560 0.130515
vt 0.098560 0.130515
vt 0.974280 1.079075
vt 0.510840 1.079075
vt 0.974280 0.130515
vt 0.974280 -0.116669
vt -0.148625 0.936791
vt -0.148625 1.079075
vt -0.850000 0.936791
vt -0.148625 0.130515
vt -0.148625 0.272799
vt -0.850000 0.272799
vt -0.850000 0.130515
vt 0.098560 0.272799
vt 0.098560 0.936791
vt 0.098560 0.130515
vt 0.098560 1.079075
vt 0.098560 -0.818045
vt 0.098560 1.079075
vt 0.974280 0.130515
vt 0.226272 1.079075
vt 0.226272 1.780450
vt -0.186008 1.780450
vt -0.186008 1.079075
vt 0.974280 -0.818045
vt 0.098560 0.130515
vt 0.098560 -0.011769
vt 0.974280 1.079075
s 1
usemtl Material.001
f 23/1/1 11/2/1 33/3/1 35/4/1
f 13/5/2 12/6/2 7/7/2 8/8/2
f 17/9/1 19/10/1 5/11/1 6/12/1
f 22/13/3 20/14/3 4/15/3 14/16/3
f 20/17/4 18/18/4 3/19/4 4/20/4
f 9/21/5 16/22/5 1/23/5 2/24/5
f 6/25/5 5/26/5 15/27/5 10/28/5
f 10/28/5 15/27/5 16/22/5 9/21/5
f 17/29/3 21/30/3 13/31/3 8/32/3
f 21/30/3 22/13/3 14/16/3 13/31/3
f 4/33/2 3/34/2 11/35/2 14/36/2
f 14/36/2 11/35/2 12/6/2 13/5/2
f 5/11/1 19/10/1 29/37/1 30/38/1
f 23/39/6 24/40/6 12/41/6 11/42/6
f 16/22/5 15/27/5 34/43/5 31/44/5
f 24/45/2 23/46/2 35/47/2 36/1/2
f 10/48/3 9/49/3 22/13/3 21/30/3
f 6/50/3 10/48/3 21/30/3 17/29/3
f 2/51/4 1/52/4 18/18/4 20/17/4
f 9/49/3 2/53/3 20/14/3 22/13/3
f 8/54/1 7/55/1 19/10/1 17/9/1
f 18/18/4 1/52/4 32/56/4 27/57/4
f 36/58/6 29/59/6 26/41/6 25/60/6
f 27/61/6 35/62/6 33/63/6 28/64/6
f 31/65/6 34/66/6 36/58/6 35/62/6
f 32/67/6 31/65/6 35/62/6 27/61/6
f 34/66/6 30/68/6 29/59/6 36/58/6
f 7/7/2 12/6/2 25/48/2 26/69/2
f 19/10/1 7/55/1 26/70/1 29/37/1
f 1/23/5 16/22/5 31/44/5 32/71/5
f 12/72/4 24/73/4 36/74/4 25/75/4
f 3/19/4 18/18/4 27/57/4 28/76/4
f 11/35/2 3/34/2 28/77/2 33/78/2
f 15/27/5 5/26/5 30/79/5 34/43/5
